<?xml version="1.0" standalone="no"?>
<!DOCTYPE svg PUBLIC "-//W3C//DTD SVG 20010904//EN"
 "http://www.w3.org/TR/2001/REC-SVG-20010904/DTD/svg10.dtd">
<svg version="1.0" xmlns="http://www.w3.org/2000/svg"
 width="885.000000pt" height="192.000000pt" viewBox="0 0 885.000000 192.000000"
 preserveAspectRatio="xMidYMid meet">
<metadata>
Created by potrace 1.10, written by Peter Selinger 2001-2011
</metadata>
<g transform="translate(0.000000,192.000000) scale(0.100000,-0.100000)"
fill="#000000" stroke="none">
<path d="M1069 1563 c-78 -48 -77 -160 1 -207 78 -45 180 14 180 104 0 91
-105 150 -181 103z"/>
<path d="M3515 1560 c-113 -28 -202 -76 -271 -144 -58 -59 -73 -80 -109 -156
-46 -97 -68 -292 -45 -405 6 -33 15 -76 19 -95 14 -65 81 -187 131 -238 85
-86 199 -129 372 -139 109 -6 242 11 328 42 l35 13 3 311 c2 245 0 311 -10
312 -49 3 -361 -1 -365 -5 -4 -4 -7 -118 -4 -153 1 -8 28 -13 84 -15 l82 -3 2
-145 c2 -80 -1 -151 -6 -159 -5 -8 -35 -15 -79 -19 -138 -9 -258 57 -312 175
-12 26 -26 56 -31 65 -17 33 -30 163 -24 233 17 189 99 299 255 342 63 17 187
16 261 -3 57 -15 64 -15 74 0 17 23 40 155 29 165 -18 17 -177 41 -262 40 -48
-1 -118 -9 -157 -19z"/>
<path d="M106 1541 c-10 -15 -7 -1114 2 -1123 5 -5 53 -7 108 -6 l99 3 3 193
2 194 36 46 c20 26 41 47 47 47 7 0 21 -18 33 -41 12 -22 45 -85 74 -140 29
-54 73 -137 97 -184 67 -126 57 -120 189 -120 117 0 138 7 112 38 -14 16 -43
67 -112 192 -16 30 -40 73 -53 95 -12 22 -27 49 -33 60 -5 11 -26 47 -45 80
-19 33 -38 67 -42 75 -4 8 -20 37 -35 63 l-28 48 22 32 c12 18 26 34 30 35 4
2 8 8 8 12 0 8 108 159 140 197 5 7 10 14 10 17 0 3 29 44 65 92 36 48 61 92
57 96 -5 5 -62 7 -128 6 l-119 -3 -53 -75 c-29 -41 -57 -84 -63 -95 -15 -30
-30 -54 -80 -130 -26 -39 -60 -96 -77 -128 -17 -32 -34 -57 -39 -57 -4 0 -10
109 -13 242 l-5 243 -102 3 c-58 1 -104 -1 -107 -7z"/>
<path d="M6196 1541 c-8 -12 -8 -1109 -1 -1122 10 -15 622 -12 627 3 7 20 2
157 -6 166 -4 4 -94 8 -199 9 -106 1 -195 2 -199 3 -4 0 -9 213 -10 473 l-3
472 -102 3 c-58 1 -104 -1 -107 -7z"/>
<path d="M1800 1273 c-45 -16 -117 -57 -138 -79 -34 -33 -55 -32 -48 4 10 47
-2 53 -98 50 l-87 -3 1 -410 c0 -225 4 -413 9 -418 4 -4 52 -6 107 -5 l99 3 5
285 c3 194 9 293 17 310 53 109 165 121 222 22 13 -22 17 -76 21 -322 l5 -295
105 0 105 0 2 285 c2 318 6 337 68 378 43 27 94 28 128 2 50 -39 58 -92 60
-391 l2 -274 105 0 105 0 3 290 c2 243 0 301 -14 360 -9 39 -23 77 -30 86 -8
8 -14 20 -14 26 0 17 -64 68 -108 86 -53 21 -117 22 -179 1 -46 -16 -119 -65
-136 -91 -14 -22 -33 -15 -62 23 -38 49 -115 84 -185 83 -30 0 -62 -3 -70 -6z"/>
<path d="M7214 1271 c-100 -24 -184 -95 -232 -194 -44 -92 -52 -123 -59 -224
-9 -148 29 -277 106 -358 97 -102 252 -137 443 -99 46 9 89 21 96 27 6 5 12
24 12 41 0 37 -18 106 -28 106 -4 0 -52 -7 -107 -16 -93 -15 -104 -15 -156 0
-69 21 -112 57 -139 121 -39 92 -48 88 215 86 272 -2 267 -4 267 85 0 81 -21
199 -45 254 -28 62 -111 141 -173 163 -50 17 -143 21 -200 8z m118 -156 c14
-4 35 -16 46 -28 25 -29 55 -108 50 -138 -3 -24 -4 -24 -152 -27 l-148 -3 7
38 c12 67 54 132 99 153 23 11 48 17 56 15 8 -2 27 -7 42 -10z"/>
<path d="M8054 1271 c-100 -24 -184 -95 -232 -194 -44 -92 -52 -123 -59 -224
-12 -187 62 -358 180 -418 63 -33 153 -55 219 -55 73 0 225 26 246 43 6 5 12
24 12 41 0 37 -18 106 -28 106 -4 0 -52 -7 -107 -16 -93 -15 -104 -15 -156 0
-69 21 -112 57 -139 121 -39 92 -48 88 215 86 272 -2 267 -4 267 85 0 81 -21
199 -45 254 -28 62 -111 141 -173 163 -50 17 -143 21 -200 8z m118 -156 c14
-4 35 -16 46 -28 25 -29 55 -108 50 -138 -3 -24 -4 -24 -152 -27 l-148 -3 7
38 c12 67 54 132 99 153 23 11 48 17 56 15 8 -2 27 -7 42 -10z"/>
<path d="M1036 1241 c-10 -16 -7 -814 2 -823 5 -5 53 -7 108 -6 l99 3 0 415 0
415 -102 3 c-58 1 -104 -1 -107 -7z"/>
<path d="M4046 1241 c-4 -5 0 -22 8 -38 8 -15 29 -68 46 -118 18 -49 38 -107
46 -127 8 -21 20 -55 28 -75 8 -21 28 -78 46 -128 17 -49 38 -103 45 -120 7
-16 16 -39 19 -50 2 -11 14 -47 26 -80 17 -50 19 -64 9 -90 -22 -54 -79 -114
-150 -156 -38 -23 -69 -43 -69 -44 0 -1 7 -16 15 -31 8 -16 15 -37 15 -47 0
-10 7 -33 14 -52 19 -44 41 -45 115 -7 77 39 152 114 211 211 27 46 50 88 50
93 0 4 13 36 28 70 33 74 30 64 117 328 37 113 73 221 80 240 30 86 37 107 46
145 6 21 15 45 20 52 22 26 -3 33 -112 33 -79 0 -111 -3 -113 -12 -3 -11 -59
-245 -114 -476 -10 -40 -22 -73 -26 -73 -8 0 -31 77 -76 251 -5 19 -18 67 -29
105 -12 39 -25 89 -31 111 -23 99 -15 94 -144 94 -63 0 -117 -4 -120 -9z"/>
<path d="M4946 1243 c-4 -4 -6 -141 -6 -304 1 -250 4 -306 19 -351 44 -137
107 -195 228 -205 79 -7 150 15 217 68 27 21 52 39 57 39 4 0 9 -17 11 -37 l3
-38 94 0 93 0 -1 409 c-1 225 -4 413 -7 418 -7 11 -201 10 -209 -1 -3 -6 -6
-133 -8 -283 -2 -260 -3 -275 -24 -319 -35 -70 -109 -97 -173 -64 -67 35 -80
104 -79 407 0 136 -3 252 -6 258 -7 11 -198 14 -209 3z"/>
</g>
</svg>
