<?xml version="1.0" standalone="no"?>
<!DOCTYPE svg PUBLIC "-//W3C//DTD SVG 20010904//EN"
 "http://www.w3.org/TR/2001/REC-SVG-20010904/DTD/svg10.dtd">
<svg version="1.0" xmlns="http://www.w3.org/2000/svg"
 width="297.000000pt" height="96.000000pt" viewBox="0 0 297.000000 96.000000"
 preserveAspectRatio="xMidYMid meet">
<metadata>
Created by potrace 1.10, written by Peter Selinger 2001-2011
</metadata>
<g transform="translate(0.000000,96.000000) scale(0.100000,-0.100000)"
fill="#000000" stroke="none">
<path d="M1567 786 c-64 -23 -107 -76 -107 -131 0 -16 -7 -28 -17 -31 -10 -3
-26 -10 -37 -16 -12 -6 -22 -6 -29 1 -6 6 -21 11 -33 11 -43 0 -54 10 -54 52
l0 41 -41 -6 c-49 -6 -49 -7 -58 -49 -5 -22 -13 -34 -26 -36 -30 -6 -38 -18
-31 -46 4 -16 13 -26 25 -26 27 0 31 -18 31 -146 0 -125 10 -158 54 -188 14
-9 45 -16 71 -16 40 0 47 3 56 27 15 39 7 58 -23 61 -46 5 -58 35 -58 138 0
98 12 124 58 124 11 0 26 8 32 18 10 16 10 16 20 0 6 -10 20 -18 30 -18 27 0
30 -19 33 -195 l2 -150 39 -3 c21 -2 43 1 48 6 6 6 9 74 9 159 -2 132 0 151
16 165 10 9 27 18 38 20 15 2 20 11 20 33 0 27 -4 30 -33 33 -39 4 -49 21 -31
54 16 30 28 38 61 38 18 0 29 7 33 20 8 26 -3 60 -20 60 -7 0 -19 2 -27 5 -7
2 -30 -2 -51 -9z"/>
<path d="M80 761 l-25 -7 0 -274 0 -275 39 -3 c21 -2 43 1 49 7 5 5 9 49 8 97
-2 93 2 104 49 104 50 0 104 23 144 60 l41 39 0 80 c0 94 -16 123 -86 158 -34
17 -61 22 -119 22 -41 -1 -86 -4 -100 -8z m188 -107 c46 -52 15 -145 -53 -157
-55 -10 -65 4 -65 93 0 65 3 81 18 90 26 15 74 3 100 -26z"/>
<path d="M2146 761 c-10 -16 -8 -543 2 -553 5 -5 27 -8 48 -6 l39 3 0 280 0
280 -42 3 c-22 2 -44 -1 -47 -7z"/>
<path d="M2347 742 c-33 -36 -8 -92 40 -92 25 0 53 30 53 57 0 46 -62 69 -93
35z"/>
<path d="M575 613 c-80 -22 -135 -109 -135 -211 0 -122 90 -212 199 -199 124
15 179 93 168 239 -5 76 -34 125 -88 154 -33 16 -112 26 -144 17z m86 -83 c74
-40 61 -226 -16 -246 -45 -11 -72 9 -91 70 -17 53 -17 59 0 111 22 70 57 91
107 65z"/>
<path d="M894 607 c-2 -7 -3 -100 -2 -207 l3 -195 39 -3 c21 -2 43 1 49 7 5 5
9 55 8 113 -3 133 12 172 69 189 40 12 40 13 40 61 0 45 -1 48 -27 48 -15 0
-39 -11 -55 -27 l-27 -26 -10 26 c-9 22 -17 27 -46 27 -20 0 -38 -6 -41 -13z"/>
<path d="M1805 605 c-75 -27 -115 -95 -115 -200 0 -97 28 -148 102 -186 47
-24 91 -24 143 0 72 33 104 91 105 191 0 101 -27 152 -102 191 -44 22 -78 23
-133 4z m119 -111 c33 -70 11 -189 -38 -212 -49 -22 -96 40 -96 128 0 124 88
179 134 84z"/>
<path d="M2334 607 c-2 -7 -3 -100 -2 -207 l3 -195 39 -3 c21 -2 43 1 48 6 10
10 13 386 3 402 -9 15 -85 12 -91 -3z"/>
<path d="M2645 613 c-80 -22 -135 -109 -135 -211 0 -122 90 -212 199 -199 124
15 179 93 168 239 -5 76 -34 125 -88 154 -33 16 -112 26 -144 17z m86 -83 c74
-40 61 -226 -16 -246 -45 -11 -72 9 -91 70 -17 53 -17 59 0 111 22 70 57 91
107 65z"/>
</g>
</svg>
